<?xml version="1.0" encoding="UTF-8"?>
<!-- Created with Inkscape (http://www.inkscape.org/) -->
<svg width="256" height="256" version="1.1" viewBox="0 0 67.733 67.733" xmlns="http://www.w3.org/2000/svg" xmlns:cc="http://creativecommons.org/ns#" xmlns:dc="http://purl.org/dc/elements/1.1/" xmlns:rdf="http://www.w3.org/1999/02/22-rdf-syntax-ns#">
 <metadata>
  <rdf:RDF>
   <cc:Work rdf:about="">
    <dc:format>image/svg+xml</dc:format>
    <dc:type rdf:resource="http://purl.org/dc/dcmitype/StillImage"/>
    <dc:title/>
   </cc:Work>
  </rdf:RDF>
 </metadata>
 <g transform="translate(0 -229.27)" stroke-width=".26458">
  <g fill="#84d0ef">
   <rect x="29.633" y="288.53" width="4.2333" height="4.2333"/>
   <rect x="29.633" y="292.77" width="4.2333" height="4.2333"/>
   <rect x="25.4" y="292.77" width="4.2333" height="4.2333"/>
   <rect x="21.167" y="292.77" width="4.2333" height="4.2333"/>
   <rect x="16.933" y="292.77" width="4.2333" height="4.2333"/>
   <rect x="25.4" y="288.53" width="4.2333" height="4.2333"/>
   <rect x="29.633" y="284.3" width="4.2333" height="4.2333"/>
   <rect x="29.633" y="280.07" width="4.2333" height="4.2333"/>
   <rect x="29.633" y="275.83" width="4.2333" height="4.2333"/>
   <rect x="29.633" y="271.6" width="4.2333" height="4.2333"/>
  </g>
  <g fill="#45b7e6">
   <rect x="33.867" y="271.6" width="4.2333" height="4.2333"/>
   <rect x="33.867" y="275.83" width="4.2333" height="4.2333"/>
   <rect x="33.867" y="280.07" width="4.2333" height="4.2333"/>
   <rect x="33.867" y="280.07" width="4.2333" height="4.2333"/>
   <rect x="33.867" y="284.3" width="4.2333" height="4.2333"/>
   <rect x="33.867" y="288.53" width="4.2333" height="4.2333"/>
   <rect x="38.1" y="288.53" width="4.2333" height="4.2333"/>
   <rect x="33.867" y="292.77" width="4.2333" height="4.2333"/>
   <rect x="38.1" y="292.77" width="4.2333" height="4.2333"/>
   <rect x="38.1" y="292.77" width="4.2333" height="4.2333"/>
   <rect x="42.333" y="292.77" width="4.2333" height="4.2333"/>
   <rect x="46.567" y="292.77" width="4.2333" height="4.2333"/>
   <rect x="42.333" y="263.13" width="4.2333" height="4.2333"/>
   <rect x="46.567" y="258.9" width="4.2333" height="4.2333"/>
   <rect x="50.8" y="254.67" width="4.2333" height="4.2333"/>
  </g>
  <g fill="#84d0ef">
   <rect x="21.167" y="263.13" width="4.2333" height="4.2333"/>
   <rect x="16.933" y="258.9" width="4.2333" height="4.2333"/>
   <rect x="12.7" y="254.67" width="4.2333" height="4.2333"/>
   <rect x="12.7" y="246.2" width="4.2333" height="4.2333"/>
   <rect x="16.933" y="246.2" width="4.2333" height="4.2333"/>
   <rect x="21.167" y="246.2" width="4.2333" height="4.2333"/>
   <rect x="25.4" y="246.2" width="4.2333" height="4.2333"/>
  </g>
  <g fill="#45b7e6">
   <rect x="46.567" y="246.2" width="4.2333" height="4.2333"/>
   <rect x="46.567" y="246.2" width="4.2333" height="4.2333"/>
   <rect x="42.333" y="246.2" width="4.2333" height="4.2333"/>
   <rect x="38.1" y="246.2" width="4.2333" height="4.2333"/>
   <rect x="50.8" y="246.2" width="4.2333" height="4.2333"/>
  </g>
  <rect x="25.4" y="263.13" width="4.2333" height="4.2333" fill="#ffd398"/>
  <g fill="#ff9e1c">
   <rect x="38.1" y="263.13" width="4.2333" height="4.2333"/>
   <rect x="42.333" y="258.9" width="4.2333" height="4.2333"/>
   <rect x="38.1" y="258.9" width="4.2333" height="4.2333"/>
   <rect x="25.4" y="258.9" width="4.2333" height="4.2333"/>
  </g>
  <g fill="#ffd398">
   <rect x="21.167" y="258.9" width="4.2333" height="4.2333"/>
   <rect x="16.933" y="254.67" width="4.2333" height="4.2333"/>
   <rect x="21.167" y="254.67" width="4.2333" height="4.2333"/>
  </g>
  <g fill="#ff9e1c">
   <rect x="25.4" y="254.67" width="4.2333" height="4.2333"/>
   <rect x="38.1" y="254.67" width="4.2333" height="4.2333"/>
   <rect x="46.567" y="254.67" width="4.2333" height="4.2333"/>
   <rect x="42.333" y="254.67" width="4.2333" height="4.2333"/>
  </g>
  <g fill="#45b7e6">
   <rect x="25.4" y="246.2" width="4.2333" height="4.2333"/>
   <rect x="21.167" y="246.2" width="4.2333" height="4.2333"/>
   <rect x="16.933" y="246.2" width="4.2333" height="4.2333"/>
   <rect x="29.633" y="271.6" width="4.2333" height="4.2333"/>
   <rect x="33.867" y="292.77" width="4.2333" height="4.2333"/>
  </g>
  <g fill="#84d0ef">
   <rect x="33.867" y="292.77" width="4.2333" height="4.2333"/>
   <rect x="38.1" y="292.77" width="4.2333" height="4.2333"/>
   <rect x="33.867" y="288.53" width="4.2333" height="4.2333"/>
   <rect x="33.867" y="284.3" width="4.2333" height="4.2333"/>
   <rect x="29.633" y="275.83" width="4.2333" height="4.2333"/>
   <rect x="29.633" y="280.07" width="4.2333" height="4.2333"/>
  </g>
  <g fill="#45b7e6">
   <rect x="29.633" y="275.83" width="4.2333" height="4.2333"/>
   <rect x="29.633" y="280.07" width="4.2333" height="4.2333"/>
   <rect x="33.867" y="284.3" width="4.2333" height="4.2333"/>
   <rect x="33.867" y="288.53" width="4.2333" height="4.2333"/>
   <rect x="38.1" y="292.77" width="4.2333" height="4.2333"/>
  </g>
  <rect x="33.867" y="288.53" width="4.2333" height="4.2333" fill="#84d0ef"/>
  <rect x="29.633" y="280.07" width="4.2333" height="4.2333" fill="#84d0ef"/>
  <rect x="29.633" y="271.6" width="4.2333" height="4.2333" fill="#45b7e6"/>
  <g fill="#84d0ef">
   <rect x="29.633" y="275.83" width="4.2333" height="4.2333"/>
   <rect x="29.633" y="271.6" width="4.2333" height="4.2333"/>
   <rect x="33.867" y="275.83" width="4.2333" height="4.2333"/>
   <rect x="33.867" y="280.07" width="4.2333" height="4.2333"/>
   <rect x="33.867" y="284.3" width="4.2333" height="4.2333"/>
   <rect x="38.1" y="288.53" width="4.2333" height="4.2333"/>
   <rect x="38.1" y="292.77" width="4.2333" height="4.2333"/>
   <rect x="42.333" y="292.77" width="4.2333" height="4.2333"/>
  </g>
  <g fill="#b2e2f5">
   <rect x="16.933" y="292.77" width="4.2333" height="4.2333"/>
   <rect x="21.167" y="292.77" width="4.2333" height="4.2333"/>
   <rect x="25.4" y="292.77" width="4.2333" height="4.2333"/>
  </g>
  <rect x="50.8" y="241.97" width="4.2333" height="4.2333" fill="#b2845a"/>
  <rect x="8.4667" y="250.43" width="4.2333" height="4.2333" fill="#84d0ef"/>
  <rect x="55.033" y="250.43" width="4.2333" height="4.2333" fill="#45b7e6"/>
  <g fill="#ab85bd">
   <rect x="46.567" y="229.27" width="4.2333" height="4.2333"/>
   <rect x="50.8" y="229.27" width="4.2333" height="4.2333"/>
   <rect x="55.033" y="229.27" width="4.2333" height="4.2333"/>
   <rect x="46.567" y="233.5" width="4.2333" height="4.2333"/>
   <rect x="50.8" y="233.5" width="4.2333" height="4.2333"/>
   <rect x="55.033" y="233.5" width="4.2333" height="4.2333"/>
   <rect x="59.267" y="233.5" width="4.2333" height="4.2333"/>
   <rect x="59.267" y="237.73" width="4.2333" height="4.2333"/>
   <rect x="59.267" y="241.97" width="4.2333" height="4.2333"/>
   <rect x="55.033" y="241.97" width="4.2333" height="4.2333"/>
   <rect x="55.033" y="237.73" width="4.2333" height="4.2333"/>
   <rect x="50.8" y="237.73" width="4.2333" height="4.2333"/>
   <rect x="59.267" y="241.97" width="4.2333" height="4.2333"/>
   <rect x="59.267" y="246.2" width="4.2333" height="4.2333"/>
   <rect x="63.5" y="246.2" width="4.2333" height="4.2333"/>
   <rect x="63.5" y="241.97" width="4.2333" height="4.2333"/>
  </g>
  <g fill="#7e5095">
   <rect x="46.567" y="233.5" width="4.2333" height="4.2333"/>
   <rect x="50.8" y="229.27" width="4.2333" height="4.2333"/>
   <rect x="55.033" y="229.27" width="4.2333" height="4.2333"/>
   <rect x="55.033" y="233.5" width="4.2333" height="4.2333"/>
   <rect x="55.033" y="237.73" width="4.2333" height="4.2333"/>
   <rect x="59.267" y="233.5" width="4.2333" height="4.2333"/>
   <rect x="63.5" y="241.97" width="4.2333" height="4.2333"/>
  </g>
  <rect x="46.567" y="246.2" width="4.2333" height="4.2333" fill="#b2845a"/>
  <rect x="46.567" y="246.2" width="4.2333" height="4.2333" fill="#45b7e6"/>
  <rect x="42.333" y="250.43" width="4.2333" height="4.2333" fill="#b2845a"/>
  <rect x="46.567" y="246.2" width="4.2333" height="4.2333" fill="#b2845a"/>
  <g fill="#ab85bd">
   <rect x="63.5" y="241.97" width="4.2333" height="4.2333"/>
   <rect x="63.5" y="237.73" width="4.2333" height="4.2333"/>
   <rect x="63.5" y="233.5" width="4.2333" height="4.2333"/>
   <rect x="63.5" y="229.27" width="4.2333" height="4.2333"/>
   <rect x="59.267" y="229.27" width="4.2333" height="4.2333"/>
   <rect x="63.5" y="250.43" width="4.2333" height="4.2333"/>
  </g>
  <rect x="42.333" y="229.27" width="4.2333" height="4.2333" fill="#9361aa"/>
  <g fill="#ab85bd">
   <rect x="50.8" y="229.27" width="4.2333" height="4.2333"/>
   <rect x="55.033" y="229.27" width="4.2333" height="4.2333"/>
   <rect x="55.033" y="233.5" width="4.2333" height="4.2333"/>
   <rect x="55.033" y="233.5" width="4.2333" height="4.2333"/>
   <rect x="55.033" y="237.73" width="4.2333" height="4.2333"/>
   <rect x="46.567" y="233.5" width="4.2333" height="4.2333"/>
   <rect x="59.267" y="233.5" width="4.2333" height="4.2333"/>
  </g>
  <g fill="#9361aa">
   <rect x="46.567" y="229.27" width="4.2333" height="4.2333"/>
   <rect x="50.8" y="229.27" width="4.2333" height="4.2333"/>
   <rect x="50.8" y="229.27" width="4.2333" height="4.2333"/>
   <rect x="55.033" y="229.27" width="4.2333" height="4.2333"/>
   <rect x="59.267" y="229.27" width="4.2333" height="4.2333"/>
   <rect x="63.5" y="229.27" width="4.2333" height="4.2333"/>
   <rect x="63.5" y="233.5" width="4.2333" height="4.2333"/>
   <rect x="63.5" y="237.73" width="4.2333" height="4.2333"/>
   <rect x="63.5" y="241.97" width="4.2333" height="4.2333"/>
   <rect x="63.5" y="241.97" width="4.2333" height="4.2333"/>
   <rect x="63.5" y="246.2" width="4.2333" height="4.2333"/>
   <rect x="63.5" y="250.43" width="4.2333" height="4.2333"/>
   <rect x="59.267" y="246.2" width="4.2333" height="4.2333"/>
   <rect x="55.033" y="241.97" width="4.2333" height="4.2333"/>
   <rect x="50.8" y="237.73" width="4.2333" height="4.2333"/>
   <rect x="46.567" y="233.5" width="4.2333" height="4.2333"/>
  </g>
  <g fill="#ff9505">
   <rect x="16.933" y="237.73" width="4.2333" height="4.2333"/>
   <rect x="12.7" y="233.5" width="4.2333" height="4.2333"/>
   <rect x="8.4667" y="233.5" width="4.2333" height="4.2333"/>
   <rect x="4.2333" y="233.5" width="4.2333" height="4.2333"/>
   <rect x="-6.9711e-6" y="237.73" width="4.2333" height="4.2333"/>
   <rect x="-6.9711e-6" y="241.97" width="4.2333" height="4.2333"/>
   <rect x="-6.9711e-6" y="246.2" width="4.2333" height="4.2333"/>
   <rect x="4.2333" y="250.43" width="4.2333" height="4.2333"/>
   <rect x="8.4667" y="250.43" width="4.2333" height="4.2333"/>
  </g>
  <g fill="#ffc84b">
   <rect x="12.7" y="237.73" width="4.2333" height="4.2333"/>
   <rect x="8.4667" y="237.73" width="4.2333" height="4.2333"/>
   <rect x="4.2333" y="237.73" width="4.2333" height="4.2333"/>
   <rect x="4.2333" y="241.97" width="4.2333" height="4.2333"/>
   <rect x="8.4667" y="241.97" width="4.2333" height="4.2333"/>
   <rect x="4.2333" y="246.2" width="4.2333" height="4.2333"/>
  </g>
  <rect x="8.4667" y="250.43" width="4.2333" height="4.2333" fill="#84d0ef"/>
  <rect x="8.4667" y="246.2" width="4.2333" height="4.2333" fill="#ffc84b"/>
  <rect x="12.7" y="241.97" width="4.2333" height="4.2333" fill="#ffc84b"/>
  <rect x="16.933" y="241.97" width="4.2333" height="4.2333" fill="#ff9505"/>
  <g fill="#ab85bd">
   <rect x="46.567" y="229.27" width="4.2333" height="4.2333"/>
   <rect x="63.5" y="246.2" width="4.2333" height="4.2333"/>
   <rect x="55.033" y="229.27" width="4.2333" height="4.2333"/>
   <rect x="63.5" y="237.73" width="4.2333" height="4.2333"/>
   <rect x="63.5" y="229.27" width="4.2333" height="4.2333"/>
  </g>
  <rect x="55.033" y="233.5" width="4.2333" height="4.2333" fill="#9361aa"/>
  <rect x="59.267" y="237.73" width="4.2333" height="4.2333" fill="#9361aa"/>
  <g fill="#45b7e6">
   <rect x="46.567" y="246.2" width="4.2333" height="4.2333"/>
   <rect x="33.867" y="246.2" width="4.2333" height="4.2333"/>
   <rect x="29.633" y="246.2" width="4.2333" height="4.2333"/>
  </g>
  <g fill="#ff9e1c">
   <rect x="29.633" y="254.67" width="4.2333" height="4.2333"/>
   <rect x="33.867" y="254.67" width="4.2333" height="4.2333"/>
   <rect x="33.867" y="258.9" width="4.2333" height="4.2333"/>
   <rect x="29.633" y="258.9" width="4.2333" height="4.2333"/>
   <rect x="33.867" y="263.13" width="4.2333" height="4.2333"/>
   <rect x="29.633" y="263.13" width="4.2333" height="4.2333"/>
  </g>
  <rect x="25.4" y="267.37" width="4.2333" height="4.2333" fill="#84d0ef"/>
  <rect x="38.1" y="267.37" width="4.2333" height="4.2333" fill="#45b7e6"/>
  <rect x="33.867" y="267.37" width="4.2333" height="4.2333" fill="#ff9e1c"/>
  <rect x="29.633" y="267.37" width="4.2333" height="4.2333" fill="#ffd398"/>
  <rect x="25.4" y="258.9" width="4.2333" height="4.2333" fill="#ffd398"/>
 </g>
</svg>
